<?xml version="1.0" encoding="iso-8859-1"?>
<!-- Generator: Adobe Illustrator 25.2.0, SVG Export Plug-In . SVG Version: 6.00 Build 0)  -->
<svg version="1.1" xmlns="http://www.w3.org/2000/svg" xmlns:xlink="http://www.w3.org/1999/xlink" x="0px" y="0px"
	 viewBox="0 0 1920 1080" style="enable-background:new 0 0 1920 1080;" xml:space="preserve">
<g id="Layer_1">
	<g>
		<rect x="62.42" y="65.477" style="fill:#FFF1D1;" width="228.214" height="958.497"/>
	</g>
	<path style="fill:#E8DCC4;" d="M179.942,1014.523H169.71c-6.6,0-12-5.4-12-12V99.103c0-6.6,5.4-12,12-12h10.232c6.6,0,12,5.4,12,12
		v903.42C191.942,1009.123,186.542,1014.523,179.942,1014.523z"/>
	<path style="fill:#E8DCC4;" d="M113.855,1006.076h-10.232c-6.6,0-12-5.4-12-12V90.735c0-6.6,5.4-12,12-12h10.232
		c6.6,0,12,5.4,12,12v903.341C125.855,1000.676,120.455,1006.076,113.855,1006.076z"/>
	<path style="fill:#E8DCC4;" d="M250.639,1006.076h-10.232c-6.6,0-12-5.4-12-12V90.48c0-6.6,5.4-12,12-12h10.232c6.6,0,12,5.4,12,12
		v903.596C262.639,1000.676,257.239,1006.076,250.639,1006.076z"/>
	<g>
		<rect x="33.177" y="32.7" style="fill:#FFF1D1;" width="285.122" height="32.777"/>
	</g>
	<g>
		<rect x="0.268" y="-0.078" style="fill:#FFF1D1;" width="351.625" height="32.777"/>
	</g>
	<g>
		<rect x="33.623" y="1014.523" style="fill:#FFF1D1;" width="285.122" height="32.777"/>
	</g>
	<g>
		<rect x="0.714" y="1047.3" style="fill:#FFF1D1;" width="351.625" height="32.777"/>
	</g>
	<g>
		<rect x="1630.081" y="66.166" style="fill:#FFF1D1;" width="228.214" height="958.497"/>
	</g>
	<path style="fill:#E8DCC4;" d="M1747.602,1015.212h-10.232c-6.6,0-12-5.4-12-12V99.792c0-6.6,5.4-12,12-12h10.232
		c6.6,0,12,5.4,12,12v903.42C1759.602,1009.812,1754.202,1015.212,1747.602,1015.212z"/>
	<path style="fill:#E8DCC4;" d="M1681.516,1006.765h-10.232c-6.6,0-12-5.4-12-12V91.424c0-6.6,5.4-12,12-12h10.232
		c6.6,0,12,5.4,12,12v903.341C1693.516,1001.365,1688.116,1006.765,1681.516,1006.765z"/>
	<path style="fill:#E8DCC4;" d="M1818.299,1006.765h-10.232c-6.6,0-12-5.4-12-12V91.169c0-6.6,5.4-12,12-12h10.232
		c6.6,0,12,5.4,12,12v903.596C1830.299,1001.365,1824.899,1006.765,1818.299,1006.765z"/>
	<g>
		<rect x="1600.838" y="33.389" style="fill:#FFF1D1;" width="285.122" height="32.777"/>
	</g>
	<g>
		<rect x="1567.928" y="0.611" style="fill:#FFF1D1;" width="351.625" height="32.777"/>
	</g>
	<g>
		<rect x="1601.284" y="1015.212" style="fill:#FFF1D1;" width="285.122" height="32.777"/>
	</g>
	<g>
		<rect x="1568.375" y="1047.99" style="fill:#FFF1D1;" width="351.625" height="32.777"/>
	</g>
	<g>
		<g>
			<path style="fill:#E8DCC4;" d="M1611.129,276.092c-422.448,115.569-868.181,115.569-1290.629,0
				c18.806-68.743,37.612-137.486,56.418-206.229c385.515,105.465,792.278,105.465,1177.793,0
				C1573.517,138.605,1592.323,207.348,1611.129,276.092z"/>
		</g>
		<g>
			<path style="fill:#FFF1D1;" d="M332.85,283.31l-29.393-5.503c-9.644-1.806-15.782-9.936-13.641-18.068L337.67,78.027
				c2.141-8.132,11.784-13.307,21.428-11.502l29.393,5.503c9.644,1.806,15.782,9.936,13.641,18.068l-47.854,181.712
				C352.137,279.94,342.494,285.116,332.85,283.31z"/>
		</g>
		<path style="fill:#E8DCC4;" d="M319.574,280.824l-2.84-0.532c-9.644-1.806-15.782-9.936-13.641-18.068l47.854-181.712
			c2.141-8.132,11.784-13.307,21.428-11.502l2.84,0.532c9.644,1.806,15.782,9.936,13.641,18.068l-47.854,181.712
			C338.86,277.454,329.218,282.63,319.574,280.824z"/>
		<g>
			<path style="fill:#FFF1D1;" d="M1564.471,68.374l-29.393,5.503c-9.644,1.806-15.782,9.936-13.641,18.068l47.854,181.712
				c2.141,8.132,11.784,13.307,21.428,11.502l29.393-5.503c9.644-1.806,15.782-9.936,13.641-18.068l-47.854-181.712
				C1583.757,71.744,1574.115,66.568,1564.471,68.374z"/>
		</g>
		<path style="fill:#E8DCC4;" d="M1551.194,70.859l-2.84,0.532c-9.644,1.806-15.782,9.936-13.641,18.068l47.854,181.712
			c2.141,8.132,11.784,13.307,21.428,11.502l2.84-0.532c9.644-1.806,15.782-9.936,13.641-18.068l-47.854-181.712
			C1570.481,74.229,1560.839,69.054,1551.194,70.859z"/>
	</g>
</g>
<g id="Layer_3" style="display:none;">
	<g style="display:inline;">
		<path style="fill:#00A237;" d="M1094.718,517.052c0,0-34.062,38.362-2.79,62.98
			C1091.928,580.032,1125.117,561.309,1094.718,517.052z"/>
		<path style="fill:#00A237;" d="M1051.371,533.087c0,0-17.899,48.078,20.156,59.733
			C1071.527,592.821,1095.708,563.37,1051.371,533.087z"/>
		<path style="fill:#00A237;" d="M1093.978,588.585c0,0-48.114,17.801-32.121,54.245
			C1061.856,642.831,1099.952,641.943,1093.978,588.585z"/>
		<path style="fill:#00A237;" d="M1048.187,582.318c0,0-38.431,33.983-10.35,62.187
			C1037.837,644.505,1073.038,629.912,1048.187,582.318z"/>
		<path style="fill:#00A237;" d="M1058.603,658.674c0,0-50.514-8.951-55.129,30.579
			C1003.474,689.254,1036.797,707.738,1058.603,658.674z"/>
		<path style="fill:#00A237;" d="M1022.256,630.127c0,0-50.336,9.906-40.355,48.434
			C981.901,678.561,1019.651,683.755,1022.256,630.127z"/>
		<path style="fill:#00A237;" d="M1078.685,461.926c0,0-29.723,41.814,4.023,62.914
			C1082.708,524.84,1113.683,502.644,1078.685,461.926z"/>
		<path style="fill:#00A237;" d="M1035.037,475.991c0,0-11.188,50.067,28.099,56.434
			C1063.136,532.424,1083.083,499.956,1035.037,475.991z"/>
		<path style="fill:#00A237;" d="M1044.093,406.061c0,0-18.339,47.912,19.608,59.915
			C1063.701,465.977,1088.151,436.749,1044.093,406.061z"/>
		<path style="fill:#00A237;" d="M1000.372,432.839c0,0,7.947,50.682,46.832,42.202
			C1047.205,475.041,1053.859,437.521,1000.372,432.839z"/>
		<path style="fill:#00A237;" d="M823.879,523.713c0,0,35.624,36.916,5.4,62.81C829.279,586.524,795.342,569.193,823.879,523.713z"
			/>
		<path style="fill:#00A237;" d="M867.853,537.937c0,0,19.878,47.294-17.661,60.518
			C850.193,598.455,824.811,570.033,867.853,537.937z"/>
		<path style="fill:#00A237;" d="M827.586,595.155c0,0,48.811,15.79,34.343,52.866C861.929,648.021,823.829,648.714,827.586,595.155
			z"/>
		<path style="fill:#00A237;" d="M873.077,586.993c0,0,39.808,32.36,12.92,61.704C885.997,648.697,850.221,635.577,873.077,586.993z
			"/>
		<path style="fill:#00A237;" d="M865.837,663.716c0,0,50.1-11.039,56.35,28.267C922.187,691.982,889.659,711.833,865.837,663.716z"
			/>
		<path style="fill:#00A237;" d="M900.969,633.686c0,0,50.703,7.81,42.329,46.718C943.298,680.404,905.795,687.16,900.969,633.686z"
			/>
		<path style="fill:#00A237;" d="M837.611,467.97c0,0,31.432,40.545-1.41,63.026C836.201,530.996,804.333,510.104,837.611,467.97z"
			/>
		<path style="fill:#00A237;" d="M881.805,480.212c0,0,13.255,49.56-25.734,57.551C856.071,537.762,834.795,506.149,881.805,480.212
			z"/>
		<path style="fill:#00A237;" d="M869.856,410.718c0,0,20.31,47.11-17.106,60.677C852.751,471.395,827.11,443.207,869.856,410.718z"
			/>
		<path style="fill:#00A237;" d="M914.65,435.66c0,0-5.838,50.968-45.042,44.109C869.609,479.768,861.403,442.556,914.65,435.66z"/>
	</g>
</g>
<g id="Layer_2" style="display:none;">
	<path style="display:inline;fill:#00A237;" d="M1347.318-1176.276c0,0-112.854,127.101-9.245,208.667
		C1338.073-967.608,1448.036-1029.643,1347.318-1176.276z"/>
	<path style="display:inline;fill:#00A237;" d="M1203.701-1123.147c0,0-59.303,159.292,66.78,197.909
		C1270.48-925.238,1350.598-1022.815,1203.701-1123.147z"/>
	<path style="display:inline;fill:#00A237;" d="M1344.864-939.27c0,0-159.412,58.977-106.424,179.726
		C1238.441-759.544,1364.66-762.484,1344.864-939.27z"/>
	<path style="display:inline;fill:#00A237;" d="M1193.15-960.036c0,0-127.331,112.594-34.292,206.038
		C1158.859-753.999,1275.488-802.347,1193.15-960.036z"/>
	<path style="display:inline;fill:#00A237;" d="M1227.662-707.052c0,0-167.365-29.658-182.654,101.316
		C1045.008-605.736,1155.413-544.493,1227.662-707.052z"/>
	<path style="display:inline;fill:#00A237;" d="M1107.235-801.634c0,0-166.773,32.821-133.703,160.471
		C973.531-641.163,1098.606-623.952,1107.235-801.634z"/>
	<path style="display:inline;fill:#00A237;" d="M1294.198-1358.919c0,0-98.479,138.537,13.328,208.446
		C1307.526-1150.473,1410.152-1224.012,1294.198-1358.919z"/>
	<path style="display:inline;fill:#00A237;" d="M1149.581-1312.32c0,0-37.067,165.881,93.098,186.976
		C1242.68-1125.344,1308.769-1232.919,1149.581-1312.32z"/>
	<path style="display:inline;fill:#00A237;" d="M1179.587-1544.011c0,0-60.759,158.742,64.964,198.512
		C1244.551-1345.499,1325.559-1442.338,1179.587-1544.011z"/>
	<path style="display:inline;fill:#00A237;" d="M1034.731-1455.291c0,0,26.329,167.921,155.165,139.825
		C1189.896-1315.466,1211.945-1439.779,1034.731-1455.291z"/>
	<path style="display:inline;fill:#00A237;" d="M449.971-1154.205c0,0,118.029,122.31,17.892,208.104
		C467.862-946.101,355.421-1003.521,449.971-1154.205z"/>
	<path style="display:inline;fill:#00A237;" d="M595.668-1107.079c0,0,65.859,156.695-58.513,200.508
		C537.154-906.57,453.059-1000.74,595.668-1107.079z"/>
	<path style="display:inline;fill:#00A237;" d="M462.252-917.505c0,0,161.721,52.314,113.787,175.157
		C576.039-742.348,449.806-740.05,462.252-917.505z"/>
	<path style="display:inline;fill:#00A237;" d="M612.975-944.546c0,0,131.891,107.216,42.808,204.438
		C655.783-740.108,537.249-783.578,612.975-944.546z"/>
	<path style="display:inline;fill:#00A237;" d="M588.986-690.348c0,0,165.991-36.574,186.699,93.653
		C775.685-596.695,667.915-530.926,588.986-690.348z"/>
	<path style="display:inline;fill:#00A237;" d="M705.387-789.844c0,0,167.991,25.876,140.244,154.787
		C845.631-635.057,721.377-612.673,705.387-789.844z"/>
	<path style="display:inline;fill:#00A237;" d="M495.469-1338.895c0,0,104.14,134.333-4.671,208.82
		C490.798-1130.075,385.211-1199.294,495.469-1338.895z"/>
	<path style="display:inline;fill:#00A237;" d="M641.894-1298.334c0,0,43.915,164.201-85.263,190.677
		C556.631-1107.658,486.137-1212.398,641.894-1298.334z"/>
	<path style="display:inline;fill:#00A237;" d="M602.304-1528.581c0,0,67.291,156.085-56.674,201.036
		C545.63-1327.545,460.675-1420.941,602.304-1528.581z"/>
	<path style="display:inline;fill:#00A237;" d="M750.715-1445.946c0,0-19.342,168.868-149.232,146.141
		C601.483-1299.805,574.298-1423.097,750.715-1445.946z"/>
</g>
</svg>
