<?xml version="1.0" encoding="iso-8859-1"?>
<!-- Generator: Adobe Illustrator 25.2.0, SVG Export Plug-In . SVG Version: 6.00 Build 0)  -->
<svg version="1.1" xmlns="http://www.w3.org/2000/svg" xmlns:xlink="http://www.w3.org/1999/xlink" x="0px" y="0px"
	 viewBox="0 0 1920 1080" style="enable-background:new 0 0 1920 1080;" xml:space="preserve">
<g id="Layer_1" style="display:none;">
	<g style="display:inline;">
		<rect x="62.42" y="65.477" style="fill:#FFF1D1;" width="228.214" height="958.497"/>
	</g>
	<path style="display:inline;fill:#E8DCC4;" d="M179.942,1014.523H169.71c-6.6,0-12-5.4-12-12V99.103c0-6.6,5.4-12,12-12h10.232
		c6.6,0,12,5.4,12,12v903.42C191.942,1009.123,186.542,1014.523,179.942,1014.523z"/>
	<path style="display:inline;fill:#E8DCC4;" d="M113.855,1006.076h-10.232c-6.6,0-12-5.4-12-12V90.735c0-6.6,5.4-12,12-12h10.232
		c6.6,0,12,5.4,12,12v903.341C125.855,1000.676,120.455,1006.076,113.855,1006.076z"/>
	<path style="display:inline;fill:#E8DCC4;" d="M250.639,1006.076h-10.232c-6.6,0-12-5.4-12-12V90.48c0-6.6,5.4-12,12-12h10.232
		c6.6,0,12,5.4,12,12v903.596C262.639,1000.676,257.239,1006.076,250.639,1006.076z"/>
	<g style="display:inline;">
		<rect x="33.177" y="32.7" style="fill:#FFF1D1;" width="285.122" height="32.777"/>
	</g>
	<g style="display:inline;">
		<rect x="0.268" y="-0.078" style="fill:#FFF1D1;" width="351.625" height="32.777"/>
	</g>
	<g style="display:inline;">
		<rect x="33.623" y="1014.523" style="fill:#FFF1D1;" width="285.122" height="32.777"/>
	</g>
	<g style="display:inline;">
		<rect x="0.714" y="1047.3" style="fill:#FFF1D1;" width="351.625" height="32.777"/>
	</g>
	<g style="display:inline;">
		<rect x="1630.081" y="66.166" style="fill:#FFF1D1;" width="228.214" height="958.497"/>
	</g>
	<path style="display:inline;fill:#E8DCC4;" d="M1747.602,1015.212h-10.232c-6.6,0-12-5.4-12-12V99.792c0-6.6,5.4-12,12-12h10.232
		c6.6,0,12,5.4,12,12v903.42C1759.602,1009.812,1754.202,1015.212,1747.602,1015.212z"/>
	<path style="display:inline;fill:#E8DCC4;" d="M1681.516,1006.765h-10.232c-6.6,0-12-5.4-12-12V91.424c0-6.6,5.4-12,12-12h10.232
		c6.6,0,12,5.4,12,12v903.341C1693.516,1001.365,1688.116,1006.765,1681.516,1006.765z"/>
	<path style="display:inline;fill:#E8DCC4;" d="M1818.299,1006.765h-10.232c-6.6,0-12-5.4-12-12V91.169c0-6.6,5.4-12,12-12h10.232
		c6.6,0,12,5.4,12,12v903.596C1830.299,1001.365,1824.899,1006.765,1818.299,1006.765z"/>
	<g style="display:inline;">
		<rect x="1600.838" y="33.389" style="fill:#FFF1D1;" width="285.122" height="32.777"/>
	</g>
	<g style="display:inline;">
		<rect x="1567.928" y="0.611" style="fill:#FFF1D1;" width="351.625" height="32.777"/>
	</g>
	<g style="display:inline;">
		<rect x="1601.284" y="1015.212" style="fill:#FFF1D1;" width="285.122" height="32.777"/>
	</g>
	<g style="display:inline;">
		<rect x="1568.375" y="1047.99" style="fill:#FFF1D1;" width="351.625" height="32.777"/>
	</g>
	<g style="display:inline;">
		<g>
			<path style="fill:#E8DCC4;" d="M1611.129,276.092c-422.448,115.569-868.181,115.569-1290.629,0
				c18.806-68.743,37.612-137.486,56.418-206.229c385.515,105.465,792.278,105.465,1177.793,0
				C1573.517,138.605,1592.323,207.348,1611.129,276.092z"/>
		</g>
		<g>
			<path style="fill:#FFF1D1;" d="M332.85,283.31l-29.393-5.503c-9.644-1.806-15.782-9.936-13.641-18.068L337.67,78.027
				c2.141-8.132,11.784-13.307,21.428-11.502l29.393,5.503c9.644,1.806,15.782,9.936,13.641,18.068l-47.854,181.712
				C352.137,279.94,342.494,285.116,332.85,283.31z"/>
		</g>
		<path style="fill:#E8DCC4;" d="M319.574,280.824l-2.84-0.532c-9.644-1.806-15.782-9.936-13.641-18.068l47.854-181.712
			c2.141-8.132,11.784-13.307,21.428-11.502l2.84,0.532c9.644,1.806,15.782,9.936,13.641,18.068l-47.854,181.712
			C338.86,277.454,329.218,282.63,319.574,280.824z"/>
		<g>
			<path style="fill:#FFF1D1;" d="M1564.471,68.374l-29.393,5.503c-9.644,1.806-15.782,9.936-13.641,18.068l47.854,181.712
				c2.141,8.132,11.784,13.307,21.428,11.502l29.393-5.503c9.644-1.806,15.782-9.936,13.641-18.068l-47.854-181.712
				C1583.757,71.744,1574.115,66.568,1564.471,68.374z"/>
		</g>
		<path style="fill:#E8DCC4;" d="M1551.194,70.859l-2.84,0.532c-9.644,1.806-15.782,9.936-13.641,18.068l47.854,181.712
			c2.141,8.132,11.784,13.307,21.428,11.502l2.84-0.532c9.644-1.806,15.782-9.936,13.641-18.068l-47.854-181.712
			C1570.481,74.229,1560.839,69.054,1551.194,70.859z"/>
	</g>
	<g style="display:inline;">
		<g>
			<path style="fill:#35B8F9;" d="M585.226,176.216c1.502,0.381,1.811,0.886,1.574,1.827c-0.268,1.076-5.09,5.137-5.744,7.684
				c-1.162,3.456-0.138,79.603,0.264,82.938c0.222,7.321,5.256,12.787,4.974,13.997c-0.254,1.078-0.905,1.21-2.514,0.828
				c-7.612-1.808-15.214-3.672-22.806-5.591c-1.168-0.296-2.268-0.861-1.994-1.934c0.311-1.203,6.894-3.967,7.361-5.852
				c0.456-1.882-0.168-18.886-0.173-20.604c-0.082-0.878-0.3-1.219-1.017-1.402c-0.43-0.11-1.5-0.097-3.106,0.205
				c-9.211,2.16-18.476,4.237-27.795,6.231c-1.479,0.313-2.309,0.514-2.603,1.582c-0.196,0.712-0.392,1.424-0.588,2.135
				c-1.147,4.139,2.871,10.547,2.732,11.08c-0.254,0.936-0.799,1.218-2.399,0.782c-8-2.183-15.987-4.429-23.962-6.737
				c-1.015-0.294-1.479-0.861-1.208-1.792c0.39-1.324,7.406-3.911,9.656-7.447c2.537-3.411,42.111-71.73,42.529-74.38
				c0.684-2.539-1.518-8.448-1.222-9.517c0.257-0.935,0.774-1.223,2.271-0.815C568.03,171.772,576.621,174.032,585.226,176.216z
				 M567.416,195.21c0,0-0.031-1.01-0.861-1.228c-0.691-0.182-1.215,0.682-1.215,0.682c-7.674,14.679-15.457,29.316-23.349,43.909
				c-0.109,0.401-0.039,0.707,0.246,0.784c0.143,0.039,0.464-0.018,0.785-0.073c4.584-1.037,18.124-3.909,22.037-5.063
				c0.671-0.256,1.024-0.451,1.162-0.988c0.069-0.268,0.061-1.413,0.061-1.413C566.599,219.608,566.977,207.405,567.416,195.21z"/>
			<path style="fill:#35B8F9;" d="M650.469,297.859c-2.211-0.429-2.979-1.99-4.06-5.024c-6.459-22.248-12.506-44.52-18.141-66.807
				c-0.41-1.506-0.462-1.943-1.166-2.096c-0.563-0.123-0.793,0.252-1.029,1.333c-3.926,17.942-7.853,35.885-11.779,53.827
				c-0.866,3.924,4.61,9.077,4.239,10.834c-0.203,0.948-0.878,1.228-1.907,1.006c-7.786-1.68-15.562-3.417-23.329-5.213
				c-1.025-0.237-1.518-0.778-1.298-1.722c0.412-1.748,7.564-4.079,8.451-7.999c6.105-26.771,12.21-53.541,18.316-80.312
				c0.885-3.912-4.161-9.051-3.748-10.806c0.219-0.945,0.861-1.221,1.821-0.999c5.211,1.205,10.426,2.381,15.646,3.53
				c2.061,0.453,3,2.075,3.654,5.05c5.336,23.965,11.128,47.923,17.379,71.86c0.182,0.6,0.365,1.2,0.798,1.284
				c0.433,0.084,0.592-0.731,0.592-0.731c3.84-19.704,7.679-39.407,11.519-59.111c0.76-3.938-4.436-8.912-4.08-10.68
				c0.189-0.951,0.822-1.248,1.786-1.057c7.305,1.446,14.618,2.838,21.938,4.175c0.966,0.177,1.445,0.685,1.272,1.639
				c-0.317,1.775-6.973,4.493-7.714,8.435c-5.521,29.718-11.042,59.437-16.563,89.155c-0.253,1.36-1.095,2.613-3.309,2.199
				C656.66,299.049,653.564,298.459,650.469,297.859z"/>
			<path style="fill:#35B8F9;" d="M730.065,219.719c0.268-1.78-0.962-3.086-2.219-3.278c-5.446-0.833-10.888-1.696-16.327-2.588
				c-2.091-0.343-3.086,0.473-3.427,2.522c-4.164,25.084-8.328,50.168-12.493,75.252c-0.34,2.048,0.382,3.152,2.587,3.514
				c5.731,0.94,11.466,1.849,17.204,2.727c1.325,0.203,2.962-0.669,3.23-2.449c0.662-4.381,1.325-8.761,1.987-13.142
				c0.352-2.327,0.933-3.219,2.053-3.751c0.011,0.01,10.7-5.132,12.136-4.937c1.303,0.186,1.786,0.954,1.611,2.187
				c-1.237,8.727-2.474,17.454-3.712,26.181c-0.615,4.385-5.784,8.839-13.498,7.688c-9.732-1.455-19.454-2.998-29.165-4.631
				c-6.955-1.17-10.984-5.12-9.997-10.708c5.002-28.499,10.003-56.998,15.005-85.497c0.987-5.591,5.821-7.967,12.32-6.874
				c9.087,1.527,18.184,2.972,27.291,4.333c7.202,1.075,10.652,6.725,10.035,11.115c-0.635,4.478-1.27,8.955-1.904,13.433
				c-0.331,2.33-0.889,3.23-1.976,3.774c0.011,0.01-10.429,5.205-11.858,4.981c-1.276-0.192-1.739-0.962-1.553-2.194
				C728.285,231.491,729.175,225.605,730.065,219.719z"/>
			<path style="fill:#35B8F9;" d="M762.104,304.317c-0.498,3.987,5.408,8.608,5.2,10.392c-0.115,0.963-0.759,1.304-1.799,1.179
				c-8.125-0.977-16.245-2.015-24.359-3.115c-1.039-0.141-1.576-0.634-1.445-1.594c0.249-1.779,7.13-4.764,7.651-8.748
				c3.609-27.22,7.218-54.44,10.827-81.66c0.52-3.977-4.954-8.625-4.705-10.411c0.131-0.961,0.743-1.296,1.715-1.164
				c7.592,1.029,15.191,2.001,22.794,2.915c0.974,0.117,1.481,0.595,1.366,1.558c-0.208,1.791-6.673,4.912-7.171,8.892
				C768.821,249.814,765.463,277.065,762.104,304.317z"/>
			<path style="fill:#35B8F9;" d="M825.237,230.945c0.145-1.656-0.881-2.857-2.145-2.971c-5.524-0.494-11.046-1.018-16.565-1.572
				c-1.263-0.127-2.034,0.49-2.188,2.005c-1.41,13.865-2.82,27.731-4.231,41.596c6.47-2.914,12.901-5.867,19.294-8.86
				c1.509-0.699,2.418-1.175,3.135-1.111c0.86,0.076,1.218,0.941,1.134,1.906c-0.32,3.678-0.641,7.356-0.961,11.033
				c-0.144,1.655-1.216,2.257-3.355,3.318c-6.904,3.184-13.852,6.323-20.843,9.416c-0.687,6.749-1.373,13.497-2.059,20.246
				c-0.14,1.377,0.662,2.295,1.994,2.428c5.668,0.569,11.339,1.107,17.011,1.616c1.332,0.12,2.91-0.853,3.066-2.647
				c0.267-3.034,0.533-6.068,0.8-9.103c0.206-2.345,0.731-3.271,1.817-3.871c0.01,0.01,10.31-5.099,11.76-4.993
				c1.314,0.105,1.845,0.841,1.747,2.083c-0.713,9.063-1.425,18.126-2.138,27.19c-0.194,2.483-1.646,3.761-4.776,3.506
				c-17.442-1.42-34.866-3.121-52.266-5.105c-1.041-0.119-1.588-0.6-1.477-1.563c0.211-1.784,7.023-4.915,7.459-8.909
				c3.029-27.29,6.059-54.581,9.089-81.871c0.436-3.987-5.132-8.517-4.92-10.308c0.111-0.963,0.715-1.312,1.689-1.2
				c16.236,1.851,32.494,3.439,48.768,4.765c3.068,0.249,4.216,1.726,4.065,3.658c-0.409,5.199-0.817,10.398-1.226,15.596
				c-0.184,2.346-0.685,3.279-1.731,3.89c0.011,0.009-10.042,5.849-11.476,5.715c-1.28-0.111-1.788-0.851-1.678-2.092
				C824.429,240.138,824.832,235.541,825.237,230.945z"/>
			<path style="fill:#35B8F9;" d="M899.362,326.402c-2.24-0.084-3.235-1.509-4.762-4.34c-9.751-20.99-19.097-42.067-28.036-63.22
				c-0.633-1.425-0.751-1.848-1.466-1.891c-0.572-0.035-0.741,0.371-0.808,1.476c-1.123,18.333-2.246,36.665-3.369,54.998
				c-0.253,4.01,5.917,8.259,5.82,10.052c-0.056,0.968-0.676,1.349-1.721,1.288c-7.911-0.461-15.819-0.98-23.723-1.557
				c-1.044-0.076-1.61-0.534-1.538-1.501c0.138-1.791,6.811-5.196,7.085-9.205c1.918-27.391,3.836-54.782,5.755-82.173
				c0.273-4.002-5.469-8.301-5.33-10.099c0.072-0.967,0.661-1.339,1.637-1.268c5.303,0.387,10.609,0.746,15.915,1.078
				c2.095,0.131,3.266,1.588,4.362,4.427c8.901,22.858,18.254,45.639,28.059,68.33c0.271,0.565,0.543,1.129,0.981,1.146
				c0.439,0.017,0.471-0.813,0.471-0.814c0.769-20.06,1.538-40.119,2.306-60.179c0.147-4.008-5.726-8.124-5.644-9.926
				c0.041-0.969,0.618-1.36,1.596-1.319c7.407,0.306,14.816,0.557,22.226,0.755c0.978,0.026,1.527,0.455,1.503,1.425
				c-0.041,1.803-6.177,5.511-6.304,9.52c-0.894,30.214-1.788,60.427-2.682,90.641c-0.041,1.383-0.679,2.751-2.92,2.681
				C905.636,326.626,902.499,326.518,899.362,326.402z"/>
			<path style="fill:#35B8F9;" d="M966.725,224.366c4.061-0.015,10.064-1.46,11.88-1.486c0.979-0.012,1.406,0.536,1.419,1.504
				c0.077,5.814,0.155,11.629,0.232,17.443c0.013,0.969-0.405,1.528-1.397,1.541c-0.991,0.011-1.863-1.221-5.432-5.203
				c-2.283-2.611-5.805-2.857-11.586-2.848c-1.409,0.002-2.397,1.109-2.397,2.355c-0.005,26.258-0.01,52.516-0.014,78.775
				c-0.007,4.018,6.407,7.883,6.419,9.679c0.004,0.97-0.593,1.387-1.638,1.39c-8.17,0.023-16.34-0.016-24.509-0.117
				c-1.046-0.013-1.638-0.436-1.626-1.406c0.029-1.796,6.48-5.599,6.511-9.617c0.246-26.257,0.492-52.514,0.738-78.771
				c0.011-1.246-0.965-2.362-2.374-2.378c-5.78-0.065-9.305,0.148-11.613,2.737c-3.607,3.948-4.492,5.172-5.482,5.151
				c-0.991-0.022-1.404-0.586-1.382-1.554c0.133-5.813,0.266-11.627,0.399-17.44c0.022-0.969,0.455-1.512,1.433-1.491
				c1.816,0.043,7.805,1.545,11.866,1.599C947.688,224.364,957.207,224.41,966.725,224.366z"/>
			<path style="fill:#35B8F9;" d="M1062.182,291.554c-0.876,0.057-4.111,2.342-5.43,2.421c-0.88,0.054-1.367-0.75-1.426-1.717
				c-0.221-3.685-0.443-7.37-0.664-11.055c-0.1-1.659,0.875-2.41,2.827-3.779c0.022,0.022,15.441-8.224,17.005-8.365
				c1.298-0.095,1.925,0.552,2.018,1.795c1.058,14.22,2.115,28.44,3.173,42.661c0.335,4.415-3.756,9.869-11.523,10.39
				c-9.797,0.654-19.599,1.22-29.404,1.697c-7.024,0.34-11.785-2.659-12.015-8.328c-1.199-28.91-2.397-57.82-3.595-86.729
				c-0.229-5.673,3.971-9.025,10.533-9.344c9.175-0.446,18.347-0.975,27.515-1.588c7.252-0.486,11.819,4.298,12.154,8.719
				c0.335,4.51,0.671,9.02,1.006,13.53c0.174,2.347-0.18,3.345-1.123,4.109c0.012,0.008-9.059,7.31-10.5,7.396
				c-1.284,0.085-1.901-0.569-1.981-1.812c-0.387-5.941-0.774-11.881-1.161-17.822c-0.118-1.796-1.596-2.81-2.862-2.729
				c-5.485,0.348-10.972,0.666-16.459,0.954c-2.11,0.111-2.906,1.121-2.801,3.195c1.287,25.395,2.573,50.79,3.86,76.185
				c0.105,2.073,1.043,2.998,3.268,2.881c5.782-0.304,11.564-0.639,17.344-1.006c1.335-0.084,2.744-1.286,2.627-3.082
				c-0.372-5.71-0.744-11.42-1.116-17.131C1063.388,292.03,1063.059,291.497,1062.182,291.554z"/>
			<path style="fill:#35B8F9;" d="M1088.48,321.03c-0.137-1.791,5.94-6.175,5.599-10.179c-2.283-27.363-4.566-54.726-6.849-82.089
				c-0.34-3.997-6.672-7.37-6.809-9.168c-0.077-0.967,0.448-1.425,1.425-1.503c14.276-1.149,28.539-2.499,42.786-4.052
				c8.346-0.913,13.201,1.985,14.145,9.963c1.32,11.229,2.64,22.457,3.959,33.686c0.372,3.162-0.98,5.274-3.221,7.343
				c-2.924,2.473-5.862,4.938-8.814,7.395c7.003,14.84,16.249,32.723,18.149,34.727c3.967,4.413,7.537,5.231,7.754,7.018
				c0.118,0.963-0.427,1.447-1.467,1.573c-7.977,0.965-15.958,1.871-23.945,2.717c-1.041,0.11-1.68-0.24-1.781-1.205
				c-0.187-1.789,2.993-2.961,2.741-5.302c-0.044-0.414-0.43-1.207-1.035-2.675c-2.588-5.988-8.381-17.212-13.65-27.401
				c-2.91,2.238-5.832,4.468-8.766,6.69c-1.236,0.951-1.561,2.232-1.42,3.748c0.532,5.744,1.065,11.488,1.598,17.232
				c0.364,4.002,7.116,7.256,7.294,9.043c0.093,0.965-0.462,1.436-1.505,1.536c-8.142,0.779-16.287,1.496-24.437,2.152
				C1089.186,322.364,1088.557,321.997,1088.48,321.03z M1101.531,230.284c1.299,14.015,2.598,28.03,3.898,42.044
				c0.091,0.964,0.574,1.476,1.153,1.422c0.724-0.067,1.948-1.017,1.947-1.017c5.216-3.97,10.393-7.967,15.531-11.988
				c2.925-2.536,4.03-4.329,3.778-6.668c-0.889-8.212-1.778-16.425-2.666-24.637c-0.344-3.167-1.584-4.144-4.81-3.803
				c-5.564,0.586-11.131,1.142-16.7,1.667C1102.399,227.422,1101.378,228.629,1101.531,230.284z"/>
			<path style="fill:#35B8F9;" d="M1191.466,219.263c-0.25-1.643-1.536-2.567-2.792-2.377c-5.493,0.829-10.99,1.629-16.49,2.398
				c-1.259,0.176-1.863,0.958-1.654,2.467c1.913,13.805,3.826,27.61,5.74,41.415c5.602-4.364,11.16-8.758,16.672-13.181
				c1.304-1.037,2.075-1.714,2.788-1.823c0.856-0.13,1.408,0.625,1.556,1.583c0.56,3.649,1.119,7.298,1.679,10.947
				c0.251,1.642-0.649,2.481-2.479,4.019c-5.965,4.73-11.981,9.426-18.049,14.088c0.931,6.719,1.862,13.439,2.794,20.158
				c0.19,1.372,1.187,2.073,2.514,1.887c5.648-0.791,11.293-1.611,16.935-2.462c1.325-0.2,2.63-1.519,2.358-3.298
				c-0.459-3.011-0.919-6.022-1.378-9.033c-0.354-2.327-0.064-3.351,0.851-4.192c0.012,0.007,8.828-7.398,10.265-7.64
				c1.305-0.21,1.995,0.379,2.195,1.609c1.454,8.974,2.908,17.948,4.362,26.922c0.399,2.458-0.71,4.043-3.82,4.539
				c-17.32,2.757-34.674,5.233-52.055,7.427c-1.041,0.131-1.687-0.206-1.807-1.169c-0.218-1.783,5.663-6.438,5.14-10.422
				c-3.519-27.232-7.037-54.463-10.556-81.695c-0.521-3.977-7.005-7.059-7.224-8.85c-0.12-0.962,0.384-1.444,1.358-1.566
				c16.218-2.047,32.411-4.356,48.573-6.928c3.047-0.486,4.514,0.677,4.824,2.59c0.834,5.148,1.668,10.295,2.502,15.443
				c0.376,2.323,0.11,3.348-0.763,4.19c0.013,0.006-8.393,8.064-9.819,8.273c-1.271,0.196-1.942-0.403-2.13-1.635
				C1192.858,228.387,1192.162,223.825,1191.466,219.263z"/>
			<path style="fill:#35B8F9;" d="M1253.137,208.562c-0.319-1.631-1.641-2.502-2.89-2.261c-5.464,1.054-10.933,2.079-16.406,3.073
				c-1.252,0.227-1.825,1.034-1.555,2.532c2.474,13.716,4.947,27.431,7.421,41.147c5.43-4.59,10.814-9.208,16.152-13.854
				c1.262-1.089,2.007-1.798,2.716-1.936c0.851-0.166,1.436,0.567,1.621,1.518c0.708,3.623,1.416,7.247,2.123,10.87
				c0.317,1.63-0.549,2.506-2.319,4.118c-5.779,4.971-11.609,9.911-17.493,14.817c1.204,6.676,2.408,13.352,3.612,20.028
				c0.246,1.363,1.272,2.022,2.592,1.783c5.62-1.022,11.236-2.073,16.848-3.155c1.318-0.254,2.57-1.626,2.226-3.392
				c-0.582-2.99-1.163-5.98-1.745-8.969c-0.45-2.31-0.2-3.346,0.682-4.223c0.012,0.007,8.537-7.755,9.965-8.056
				c1.298-0.264,2.013,0.297,2.262,1.518c1.819,8.907,3.637,17.815,5.456,26.722c0.5,2.44-0.548,4.07-3.64,4.693
				c-17.225,3.467-34.491,6.653-51.794,9.556c-1.036,0.174-1.696-0.137-1.855-1.094c-0.29-1.772,5.405-6.665,4.721-10.624
				c-4.624-27.066-9.248-54.132-13.872-81.198c-0.682-3.953-7.296-6.767-7.587-8.547c-0.16-0.956,0.326-1.458,1.295-1.621
				c16.145-2.709,32.257-5.681,48.329-8.915c3.03-0.61,4.546,0.491,4.934,2.39c1.043,5.109,2.086,10.219,3.13,15.328
				c0.47,2.306,0.246,3.341-0.594,4.218c0.014,0.006-8.074,8.403-9.494,8.671c-1.265,0.248-1.959-0.323-2.198-1.546
				C1254.9,217.621,1254.019,213.092,1253.137,208.562z"/>
			<path style="fill:#35B8F9;" d="M1313.781,195.627c-0.416-1.751-2.051-2.502-3.292-2.21c-5.383,1.265-10.772,2.5-16.166,3.706
				c-2.075,0.463-2.694,1.593-2.246,3.62c5.5,24.825,11,49.651,16.5,74.476c0.448,2.027,1.532,2.781,3.719,2.293
				c5.683-1.271,11.361-2.573,17.034-3.906c1.308-0.307,2.508-1.729,2.093-3.481c-1.021-4.311-2.042-8.622-3.063-12.933
				c-0.542-2.29-0.335-3.335,0.511-4.247c0.013,0.006,8.05-8.765,9.464-9.123c1.285-0.315,2.021,0.216,2.32,1.426
				c2.11,8.558,4.221,17.115,6.332,25.673c1.067,4.298-2.086,10.364-9.706,12.185c-9.611,2.293-19.237,4.497-28.878,6.613
				c-6.906,1.514-12.125-0.645-13.295-6.197c-5.998-28.306-11.995-56.612-17.993-84.919c-1.171-5.555,2.434-9.565,8.886-10.98
				c9.022-1.98,18.03-4.042,27.023-6.188c7.113-1.699,12.442,2.249,13.51,6.552c1.083,4.391,2.166,8.782,3.249,13.173
				c0.563,2.285,0.377,3.329-0.431,4.241c0.013,0.006-7.774,8.733-9.188,9.059c-1.261,0.3-1.98-0.242-2.267-1.454
				C1316.525,207.213,1315.153,201.42,1313.781,195.627z"/>
			<path style="fill:#35B8F9;" d="M1374.614,179.756c-0.451-1.6-1.843-2.359-3.076-2.016c-5.386,1.502-10.779,2.973-16.177,4.415
				c-1.235,0.33-1.744,1.181-1.353,2.653c3.578,13.47,7.157,26.939,10.735,40.409c5.066-5.023,10.085-10.07,15.056-15.142
				c1.176-1.19,1.865-1.958,2.564-2.154c0.84-0.235,1.482,0.447,1.745,1.379c1,3.554,1.999,7.108,2.999,10.661
				c0.449,1.599-0.348,2.544-1.991,4.296c-5.386,5.433-10.826,10.837-16.321,16.212c1.742,6.556,3.483,13.112,5.225,19.668
				c0.356,1.338,1.436,1.912,2.738,1.564c5.543-1.481,11.082-2.992,16.613-4.533c1.299-0.362,2.444-1.833,1.957-3.566
				c-0.823-2.933-1.645-5.865-2.468-8.798c-0.636-2.266-0.467-3.319,0.344-4.267c0.012,0.006,7.926-8.436,9.332-8.854
				c1.278-0.37,2.041,0.13,2.387,1.326c2.536,8.73,5.073,17.46,7.609,26.191c0.696,2.392-0.221,4.102-3.268,4.979
				c-16.969,4.879-33.998,9.476-51.08,13.791c-1.023,0.258-1.708,0.003-1.944-0.938c-0.433-1.743,4.873-7.088,3.87-10.979
				c-6.804-26.602-13.608-53.203-20.411-79.805c-1.001-3.884-7.846-6.147-8.28-7.897c-0.237-0.941,0.209-1.48,1.166-1.722
				c15.939-4.027,31.829-8.315,47.663-12.866c2.984-0.859,4.591,0.114,5.132,1.975c1.455,5.008,2.91,10.016,4.365,15.023
				c0.657,2.26,0.516,3.31-0.256,4.254c0.014,0.005-7.41,9.044-8.81,9.428c-1.247,0.351-1.987-0.16-2.325-1.36
				C1377.107,188.642,1375.86,184.199,1374.614,179.756z"/>
		</g>
	</g>
	<rect x="1398.318" y="831.649" style="display:inline;fill:none;" width="2.22" height="0"/>
	<rect x="1291.763" y="412.09" style="display:inline;fill:none;" width="2.22" height="0"/>
</g>
<g id="Layer_4">
	
		<linearGradient id="SVGID_1_" gradientUnits="userSpaceOnUse" x1="838.6793" y1="443.6327" x2="838.6793" y2="794.7394" gradientTransform="matrix(0.8598 0.024 0.0569 0.9882 108.245 -19.962)">
		<stop  offset="0" style="stop-color:#F7931E"/>
		<stop  offset="1" style="stop-color:#C1272D"/>
	</linearGradient>
	<path style="fill:url(#SVGID_1_);" d="M701.708,516.303c0,0,59.58-57.158,111.099-3.032s11.178,188.942,14.986,201.705
		c3.808,12.763,43.866,67.993,86.2,71.578c42.334,3.585,106.892-43.475,109.766-53.599c2.874-10.124,10.663-56.463-19.303-123.97
		c-29.966-67.507-52.259-122.467-109.12-161.568S701.708,516.303,701.708,516.303z"/>
	<linearGradient id="SVGID_2_" gradientUnits="userSpaceOnUse" x1="926.1827" y1="263.206" x2="926.1827" y2="762.0164">
		<stop  offset="0" style="stop-color:#F7931E"/>
		<stop  offset="1" style="stop-color:#C1272D"/>
	</linearGradient>
	<path style="fill:url(#SVGID_2_);" d="M960.138,757.432c0,0-78.397-78.337-69.518-142.393
		c8.88-64.057,28.859-46.297,46.618-108.454s11.099-53.277-22.199-93.235c-33.298-39.958-88.796-79.916-88.796-79.916
		s91.015,31.078,110.994,55.497s-2.22-107.156-62.157-125.724c0,0,119.874,10.29,135.413,134.604s-37.659,137.633-35.479,170.931
		s16.758,84.356,38.327,108.775C1034.913,701.935,1036.316,781.85,960.138,757.432z"/>
	<linearGradient id="SVGID_3_" gradientUnits="userSpaceOnUse" x1="1000.1655" y1="325.5186" x2="1000.1655" y2="699.7038">
		<stop  offset="0" style="stop-color:#F7931E"/>
		<stop  offset="1" style="stop-color:#C1272D"/>
	</linearGradient>
	<path style="fill:url(#SVGID_3_);" d="M929.84,539.747c70.06-77.345,129.974-11.622,121.903-87.493s-62.672-126.736-62.672-126.736
		s100.581,58.863,109.454,90.415s13.576,132.685-44.042,197.15c-57.619,64.465-102.193,90.901-123.857,86.061
		C908.961,694.305,866.437,609.744,929.84,539.747z"/>
	<path style="fill:#721919;" d="M1210.344,574.884c0,148.721-120.563,269.284-269.284,269.284S671.776,723.606,671.776,574.884
		H1210.344z"/>
	
		<rect x="911.753" y="702.895" transform="matrix(0.7071 0.7071 -0.7071 0.7071 852.2734 -414.2517)" style="fill:#721919;" width="28.859" height="237.528"/>
	
		<rect x="941.508" y="702.895" transform="matrix(-0.7071 0.7071 -0.7071 -0.7071 2212.8884 726.7099)" style="fill:#721919;" width="28.859" height="237.528"/>
</g>
<g id="Layer_3" style="display:none;">
	<g style="display:inline;">
		<path style="fill:#00A237;" d="M1094.718,517.052c0,0-34.062,38.362-2.79,62.98
			C1091.928,580.032,1125.117,561.309,1094.718,517.052z"/>
		<path style="fill:#00A237;" d="M1051.371,533.087c0,0-17.899,48.078,20.156,59.733
			C1071.527,592.821,1095.708,563.37,1051.371,533.087z"/>
		<path style="fill:#00A237;" d="M1093.978,588.585c0,0-48.114,17.801-32.121,54.245
			C1061.856,642.831,1099.952,641.943,1093.978,588.585z"/>
		<path style="fill:#00A237;" d="M1048.187,582.318c0,0-38.431,33.983-10.35,62.187
			C1037.837,644.505,1073.038,629.912,1048.187,582.318z"/>
		<path style="fill:#00A237;" d="M1058.603,658.674c0,0-50.514-8.951-55.129,30.579
			C1003.474,689.254,1036.797,707.738,1058.603,658.674z"/>
		<path style="fill:#00A237;" d="M1022.256,630.127c0,0-50.336,9.906-40.355,48.434
			C981.901,678.561,1019.651,683.755,1022.256,630.127z"/>
		<path style="fill:#00A237;" d="M1078.685,461.926c0,0-29.723,41.814,4.023,62.914
			C1082.708,524.84,1113.683,502.644,1078.685,461.926z"/>
		<path style="fill:#00A237;" d="M1035.037,475.991c0,0-11.188,50.067,28.099,56.434
			C1063.136,532.424,1083.083,499.956,1035.037,475.991z"/>
		<path style="fill:#00A237;" d="M1044.093,406.061c0,0-18.339,47.912,19.608,59.915
			C1063.701,465.977,1088.151,436.749,1044.093,406.061z"/>
		<path style="fill:#00A237;" d="M1000.372,432.839c0,0,7.947,50.682,46.832,42.202
			C1047.205,475.041,1053.859,437.521,1000.372,432.839z"/>
		<path style="fill:#00A237;" d="M823.879,523.713c0,0,35.624,36.916,5.4,62.81C829.279,586.524,795.342,569.193,823.879,523.713z"
			/>
		<path style="fill:#00A237;" d="M867.853,537.937c0,0,19.878,47.294-17.661,60.518
			C850.193,598.455,824.811,570.033,867.853,537.937z"/>
		<path style="fill:#00A237;" d="M827.586,595.155c0,0,48.811,15.79,34.343,52.866C861.929,648.021,823.829,648.714,827.586,595.155
			z"/>
		<path style="fill:#00A237;" d="M873.077,586.993c0,0,39.808,32.36,12.92,61.704C885.997,648.697,850.221,635.577,873.077,586.993z
			"/>
		<path style="fill:#00A237;" d="M865.837,663.716c0,0,50.1-11.039,56.35,28.267C922.187,691.982,889.659,711.833,865.837,663.716z"
			/>
		<path style="fill:#00A237;" d="M900.969,633.686c0,0,50.703,7.81,42.329,46.718C943.298,680.404,905.795,687.16,900.969,633.686z"
			/>
		<path style="fill:#00A237;" d="M837.611,467.97c0,0,31.432,40.545-1.41,63.026C836.201,530.996,804.333,510.104,837.611,467.97z"
			/>
		<path style="fill:#00A237;" d="M881.805,480.212c0,0,13.255,49.56-25.734,57.551C856.071,537.762,834.795,506.149,881.805,480.212
			z"/>
		<path style="fill:#00A237;" d="M869.856,410.718c0,0,20.31,47.11-17.106,60.677C852.751,471.395,827.11,443.207,869.856,410.718z"
			/>
		<path style="fill:#00A237;" d="M914.65,435.66c0,0-5.838,50.968-45.042,44.109C869.609,479.768,861.403,442.556,914.65,435.66z"/>
	</g>
</g>
<g id="Layer_2" style="display:none;">
	<path style="display:inline;fill:#00A237;" d="M1347.318-1176.276c0,0-112.854,127.101-9.245,208.667
		C1338.073-967.608,1448.036-1029.643,1347.318-1176.276z"/>
	<path style="display:inline;fill:#00A237;" d="M1203.701-1123.147c0,0-59.303,159.292,66.78,197.909
		C1270.48-925.238,1350.598-1022.815,1203.701-1123.147z"/>
	<path style="display:inline;fill:#00A237;" d="M1344.864-939.27c0,0-159.412,58.977-106.424,179.726
		C1238.441-759.544,1364.66-762.484,1344.864-939.27z"/>
	<path style="display:inline;fill:#00A237;" d="M1193.15-960.036c0,0-127.331,112.594-34.292,206.038
		C1158.859-753.999,1275.488-802.347,1193.15-960.036z"/>
	<path style="display:inline;fill:#00A237;" d="M1227.662-707.052c0,0-167.365-29.658-182.654,101.316
		C1045.008-605.736,1155.413-544.493,1227.662-707.052z"/>
	<path style="display:inline;fill:#00A237;" d="M1107.235-801.634c0,0-166.773,32.821-133.703,160.471
		C973.531-641.163,1098.606-623.952,1107.235-801.634z"/>
	<path style="display:inline;fill:#00A237;" d="M1294.198-1358.919c0,0-98.479,138.537,13.328,208.446
		C1307.526-1150.473,1410.152-1224.012,1294.198-1358.919z"/>
	<path style="display:inline;fill:#00A237;" d="M1149.581-1312.32c0,0-37.067,165.881,93.098,186.976
		C1242.68-1125.344,1308.769-1232.919,1149.581-1312.32z"/>
	<path style="display:inline;fill:#00A237;" d="M1179.587-1544.011c0,0-60.759,158.742,64.964,198.512
		C1244.551-1345.499,1325.559-1442.338,1179.587-1544.011z"/>
	<path style="display:inline;fill:#00A237;" d="M1034.731-1455.291c0,0,26.329,167.921,155.165,139.825
		C1189.896-1315.466,1211.945-1439.779,1034.731-1455.291z"/>
	<path style="display:inline;fill:#00A237;" d="M449.971-1154.205c0,0,118.029,122.31,17.892,208.104
		C467.862-946.101,355.421-1003.521,449.971-1154.205z"/>
	<path style="display:inline;fill:#00A237;" d="M595.668-1107.079c0,0,65.859,156.695-58.513,200.508
		C537.154-906.57,453.059-1000.74,595.668-1107.079z"/>
	<path style="display:inline;fill:#00A237;" d="M462.252-917.505c0,0,161.721,52.314,113.787,175.157
		C576.039-742.348,449.806-740.05,462.252-917.505z"/>
	<path style="display:inline;fill:#00A237;" d="M612.975-944.546c0,0,131.891,107.216,42.808,204.438
		C655.783-740.108,537.249-783.578,612.975-944.546z"/>
	<path style="display:inline;fill:#00A237;" d="M588.986-690.348c0,0,165.991-36.574,186.699,93.653
		C775.685-596.695,667.915-530.926,588.986-690.348z"/>
	<path style="display:inline;fill:#00A237;" d="M705.387-789.844c0,0,167.991,25.876,140.244,154.787
		C845.631-635.057,721.377-612.673,705.387-789.844z"/>
	<path style="display:inline;fill:#00A237;" d="M495.469-1338.895c0,0,104.14,134.333-4.671,208.82
		C490.798-1130.075,385.211-1199.294,495.469-1338.895z"/>
	<path style="display:inline;fill:#00A237;" d="M641.894-1298.334c0,0,43.915,164.201-85.263,190.677
		C556.631-1107.658,486.137-1212.398,641.894-1298.334z"/>
	<path style="display:inline;fill:#00A237;" d="M602.304-1528.581c0,0,67.291,156.085-56.674,201.036
		C545.63-1327.545,460.675-1420.941,602.304-1528.581z"/>
	<path style="display:inline;fill:#00A237;" d="M750.715-1445.946c0,0-19.342,168.868-149.232,146.141
		C601.483-1299.805,574.298-1423.097,750.715-1445.946z"/>
</g>
</svg>
