<?xml version="1.0" encoding="utf-8"?>
<!-- Generator: Adobe Illustrator 25.2.0, SVG Export Plug-In . SVG Version: 6.00 Build 0)  -->
<svg version="1.1" id="Layer_1" xmlns="http://www.w3.org/2000/svg" xmlns:xlink="http://www.w3.org/1999/xlink" x="0px" y="0px"
	 viewBox="0 0 1920 1080" style="enable-background:new 0 0 1920 1080;" xml:space="preserve">
<style type="text/css">
	.st0{display:none;}
	.st1{display:inline;}
	.st2{fill:#FFF1D1;}
	.st3{display:inline;fill:#E8DCC4;}
	.st4{fill:#E8DCC4;}
	.st5{fill:#35B8F9;}
	.st6{display:inline;fill:none;}
	.st7{display:inline;fill:url(#SVGID_1_);}
	.st8{display:inline;fill:url(#SVGID_2_);}
	.st9{display:inline;fill:url(#SVGID_3_);}
	.st10{display:inline;fill:#721919;}
	.st11{fill:#00A237;}
	.st12{display:inline;fill:#00A237;}
</style>
<g id="Layer_1_1_" class="st0">
	<g class="st1">
		<rect x="62.4" y="65.5" class="st2" width="228.2" height="958.5"/>
	</g>
	<path class="st3" d="M179.9,1014.5h-10.2c-6.6,0-12-5.4-12-12V99.1c0-6.6,5.4-12,12-12h10.2c6.6,0,12,5.4,12,12v903.4
		C191.9,1009.1,186.5,1014.5,179.9,1014.5z"/>
	<path class="st3" d="M113.9,1006.1h-10.2c-6.6,0-12-5.4-12-12V90.7c0-6.6,5.4-12,12-12h10.2c6.6,0,12,5.4,12,12v903.3
		C125.9,1000.7,120.5,1006.1,113.9,1006.1z"/>
	<path class="st3" d="M250.6,1006.1h-10.2c-6.6,0-12-5.4-12-12V90.5c0-6.6,5.4-12,12-12h10.2c6.6,0,12,5.4,12,12v903.6
		C262.6,1000.7,257.2,1006.1,250.6,1006.1z"/>
	<g class="st1">
		<rect x="33.2" y="32.7" class="st2" width="285.1" height="32.8"/>
	</g>
	<g class="st1">
		<rect x="0.3" y="-0.1" class="st2" width="351.6" height="32.8"/>
	</g>
	<g class="st1">
		<rect x="33.6" y="1014.5" class="st2" width="285.1" height="32.8"/>
	</g>
	<g class="st1">
		<rect x="0.7" y="1047.3" class="st2" width="351.6" height="32.8"/>
	</g>
	<g class="st1">
		<rect x="1630.1" y="66.2" class="st2" width="228.2" height="958.5"/>
	</g>
	<path class="st3" d="M1747.6,1015.2h-10.2c-6.6,0-12-5.4-12-12V99.8c0-6.6,5.4-12,12-12h10.2c6.6,0,12,5.4,12,12v903.4
		C1759.6,1009.8,1754.2,1015.2,1747.6,1015.2z"/>
	<path class="st3" d="M1681.5,1006.8h-10.2c-6.6,0-12-5.4-12-12V91.4c0-6.6,5.4-12,12-12h10.2c6.6,0,12,5.4,12,12v903.3
		C1693.5,1001.4,1688.1,1006.8,1681.5,1006.8z"/>
	<path class="st3" d="M1818.3,1006.8h-10.2c-6.6,0-12-5.4-12-12V91.2c0-6.6,5.4-12,12-12h10.2c6.6,0,12,5.4,12,12v903.6
		C1830.3,1001.4,1824.9,1006.8,1818.3,1006.8z"/>
	<g class="st1">
		<rect x="1600.8" y="33.4" class="st2" width="285.1" height="32.8"/>
	</g>
	<g class="st1">
		<rect x="1567.9" y="0.6" class="st2" width="351.6" height="32.8"/>
	</g>
	<g class="st1">
		<rect x="1601.3" y="1015.2" class="st2" width="285.1" height="32.8"/>
	</g>
	<g class="st1">
		<rect x="1568.4" y="1048" class="st2" width="351.6" height="32.8"/>
	</g>
	<g class="st1">
		<g>
			<path class="st4" d="M1611.1,276.1c-422.4,115.6-868.2,115.6-1290.6,0c18.8-68.7,37.6-137.5,56.4-206.2
				c385.5,105.5,792.3,105.5,1177.8,0C1573.5,138.6,1592.3,207.3,1611.1,276.1z"/>
		</g>
		<g>
			<path class="st2" d="M332.9,283.3l-29.4-5.5c-9.6-1.8-15.8-9.9-13.6-18.1L337.7,78c2.1-8.1,11.8-13.3,21.4-11.5l29.4,5.5
				c9.6,1.8,15.8,9.9,13.6,18.1l-47.9,181.7C352.1,279.9,342.5,285.1,332.9,283.3z"/>
		</g>
		<path class="st4" d="M319.6,280.8l-2.8-0.5c-9.6-1.8-15.8-9.9-13.6-18.1l47.9-181.7c2.1-8.1,11.8-13.3,21.4-11.5l2.8,0.5
			c9.6,1.8,15.8,9.9,13.6,18.1L341,269.3C338.9,277.5,329.2,282.6,319.6,280.8z"/>
		<g>
			<path class="st2" d="M1564.5,68.4l-29.4,5.5c-9.6,1.8-15.8,9.9-13.6,18.1l47.9,181.7c2.1,8.1,11.8,13.3,21.4,11.5l29.4-5.5
				c9.6-1.8,15.8-9.9,13.6-18.1l-47.9-181.7C1583.8,71.7,1574.1,66.6,1564.5,68.4z"/>
		</g>
		<path class="st4" d="M1551.2,70.9l-2.8,0.5c-9.6,1.8-15.8,9.9-13.6,18.1l47.9,181.7c2.1,8.1,11.8,13.3,21.4,11.5l2.8-0.5
			c9.6-1.8,15.8-9.9,13.6-18.1l-47.9-181.7C1570.5,74.2,1560.8,69.1,1551.2,70.9z"/>
	</g>
	<g class="st1">
		<g>
			<path class="st5" d="M585.2,176.2c1.5,0.4,1.8,0.9,1.6,1.8c-0.3,1.1-5.1,5.1-5.7,7.7c-1.2,3.5-0.1,79.6,0.3,82.9
				c0.2,7.3,5.3,12.8,5,14c-0.3,1.1-0.9,1.2-2.5,0.8c-7.6-1.8-15.2-3.7-22.8-5.6c-1.2-0.3-2.3-0.9-2-1.9c0.3-1.2,6.9-4,7.4-5.9
				c0.5-1.9-0.2-18.9-0.2-20.6c-0.1-0.9-0.3-1.2-1-1.4c-0.4-0.1-1.5-0.1-3.1,0.2c-9.2,2.2-18.5,4.2-27.8,6.2
				c-1.5,0.3-2.3,0.5-2.6,1.6c-0.2,0.7-0.4,1.4-0.6,2.1c-1.1,4.1,2.9,10.5,2.7,11.1c-0.3,0.9-0.8,1.2-2.4,0.8c-8-2.2-16-4.4-24-6.7
				c-1-0.3-1.5-0.9-1.2-1.8c0.4-1.3,7.4-3.9,9.7-7.4c2.5-3.4,42.1-71.7,42.5-74.4c0.7-2.5-1.5-8.4-1.2-9.5c0.3-0.9,0.8-1.2,2.3-0.8
				C568,171.8,576.6,174,585.2,176.2z M567.4,195.2c0,0,0-1-0.9-1.2c-0.7-0.2-1.2,0.7-1.2,0.7c-7.7,14.7-15.5,29.3-23.3,43.9
				c-0.1,0.4,0,0.7,0.2,0.8c0.1,0,0.5,0,0.8-0.1c4.6-1,18.1-3.9,22-5.1c0.7-0.3,1-0.5,1.2-1c0.1-0.3,0.1-1.4,0.1-1.4
				C566.6,219.6,567,207.4,567.4,195.2z"/>
			<path class="st5" d="M650.5,297.9c-2.2-0.4-3-2-4.1-5c-6.5-22.2-12.5-44.5-18.1-66.8c-0.4-1.5-0.5-1.9-1.2-2.1
				c-0.6-0.1-0.8,0.3-1,1.3c-3.9,17.9-7.9,35.9-11.8,53.8c-0.9,3.9,4.6,9.1,4.2,10.8c-0.2,0.9-0.9,1.2-1.9,1
				c-7.8-1.7-15.6-3.4-23.3-5.2c-1-0.2-1.5-0.8-1.3-1.7c0.4-1.7,7.6-4.1,8.5-8c6.1-26.8,12.2-53.5,18.3-80.3
				c0.9-3.9-4.2-9.1-3.7-10.8c0.2-0.9,0.9-1.2,1.8-1c5.2,1.2,10.4,2.4,15.6,3.5c2.1,0.5,3,2.1,3.7,5.1c5.3,24,11.1,47.9,17.4,71.9
				c0.2,0.6,0.4,1.2,0.8,1.3c0.4,0.1,0.6-0.7,0.6-0.7c3.8-19.7,7.7-39.4,11.5-59.1c0.8-3.9-4.4-8.9-4.1-10.7c0.2-1,0.8-1.2,1.8-1.1
				c7.3,1.4,14.6,2.8,21.9,4.2c1,0.2,1.4,0.7,1.3,1.6c-0.3,1.8-7,4.5-7.7,8.4c-5.5,29.7-11,59.4-16.6,89.2c-0.3,1.4-1.1,2.6-3.3,2.2
				C656.7,299,653.6,298.5,650.5,297.9z"/>
			<path class="st5" d="M730.1,219.7c0.3-1.8-1-3.1-2.2-3.3c-5.4-0.8-10.9-1.7-16.3-2.6c-2.1-0.3-3.1,0.5-3.4,2.5
				c-4.2,25.1-8.3,50.2-12.5,75.3c-0.3,2,0.4,3.2,2.6,3.5c5.7,0.9,11.5,1.8,17.2,2.7c1.3,0.2,3-0.7,3.2-2.4c0.7-4.4,1.3-8.8,2-13.1
				c0.4-2.3,0.9-3.2,2.1-3.8c0,0,10.7-5.1,12.1-4.9c1.3,0.2,1.8,1,1.6,2.2c-1.2,8.7-2.5,17.5-3.7,26.2c-0.6,4.4-5.8,8.8-13.5,7.7
				c-9.7-1.5-19.5-3-29.2-4.6c-7-1.2-11-5.1-10-10.7c5-28.5,10-57,15-85.5c1-5.6,5.8-8,12.3-6.9c9.1,1.5,18.2,3,27.3,4.3
				c7.2,1.1,10.7,6.7,10,11.1c-0.6,4.5-1.3,9-1.9,13.4c-0.3,2.3-0.9,3.2-2,3.8c0,0-10.4,5.2-11.9,5c-1.3-0.2-1.7-1-1.6-2.2
				C728.3,231.5,729.2,225.6,730.1,219.7z"/>
			<path class="st5" d="M762.1,304.3c-0.5,4,5.4,8.6,5.2,10.4c-0.1,1-0.8,1.3-1.8,1.2c-8.1-1-16.2-2-24.4-3.1
				c-1-0.1-1.6-0.6-1.4-1.6c0.2-1.8,7.1-4.8,7.7-8.7c3.6-27.2,7.2-54.4,10.8-81.7c0.5-4-5-8.6-4.7-10.4c0.1-1,0.7-1.3,1.7-1.2
				c7.6,1,15.2,2,22.8,2.9c1,0.1,1.5,0.6,1.4,1.6c-0.2,1.8-6.7,4.9-7.2,8.9C768.8,249.8,765.5,277.1,762.1,304.3z"/>
			<path class="st5" d="M825.2,230.9c0.1-1.7-0.9-2.9-2.1-3c-5.5-0.5-11-1-16.6-1.6c-1.3-0.1-2,0.5-2.2,2
				c-1.4,13.9-2.8,27.7-4.2,41.6c6.5-2.9,12.9-5.9,19.3-8.9c1.5-0.7,2.4-1.2,3.1-1.1c0.9,0.1,1.2,0.9,1.1,1.9c-0.3,3.7-0.6,7.4-1,11
				c-0.1,1.7-1.2,2.3-3.4,3.3c-6.9,3.2-13.9,6.3-20.8,9.4c-0.7,6.7-1.4,13.5-2.1,20.2c-0.1,1.4,0.7,2.3,2,2.4
				c5.7,0.6,11.3,1.1,17,1.6c1.3,0.1,2.9-0.9,3.1-2.6c0.3-3,0.5-6.1,0.8-9.1c0.2-2.3,0.7-3.3,1.8-3.9c0,0,10.3-5.1,11.8-5
				c1.3,0.1,1.8,0.8,1.7,2.1c-0.7,9.1-1.4,18.1-2.1,27.2c-0.2,2.5-1.6,3.8-4.8,3.5c-17.4-1.4-34.9-3.1-52.3-5.1
				c-1-0.1-1.6-0.6-1.5-1.6c0.2-1.8,7-4.9,7.5-8.9c3-27.3,6.1-54.6,9.1-81.9c0.4-4-5.1-8.5-4.9-10.3c0.1-1,0.7-1.3,1.7-1.2
				c16.2,1.9,32.5,3.4,48.8,4.8c3.1,0.2,4.2,1.7,4.1,3.7c-0.4,5.2-0.8,10.4-1.2,15.6c-0.2,2.3-0.7,3.3-1.7,3.9c0,0-10,5.8-11.5,5.7
				c-1.3-0.1-1.8-0.9-1.7-2.1C824.4,240.1,824.8,235.5,825.2,230.9z"/>
			<path class="st5" d="M899.4,326.4c-2.2-0.1-3.2-1.5-4.8-4.3c-9.8-21-19.1-42.1-28-63.2c-0.6-1.4-0.8-1.8-1.5-1.9
				c-0.6,0-0.7,0.4-0.8,1.5c-1.1,18.3-2.2,36.7-3.4,55c-0.3,4,5.9,8.3,5.8,10.1c-0.1,1-0.7,1.3-1.7,1.3c-7.9-0.5-15.8-1-23.7-1.6
				c-1-0.1-1.6-0.5-1.5-1.5c0.1-1.8,6.8-5.2,7.1-9.2c1.9-27.4,3.8-54.8,5.8-82.2c0.3-4-5.5-8.3-5.3-10.1c0.1-1,0.7-1.3,1.6-1.3
				c5.3,0.4,10.6,0.7,15.9,1.1c2.1,0.1,3.3,1.6,4.4,4.4c8.9,22.9,18.3,45.6,28.1,68.3c0.3,0.6,0.5,1.1,1,1.1c0.4,0,0.5-0.8,0.5-0.8
				c0.8-20.1,1.5-40.1,2.3-60.2c0.1-4-5.7-8.1-5.6-9.9c0-1,0.6-1.4,1.6-1.3c7.4,0.3,14.8,0.6,22.2,0.8c1,0,1.5,0.5,1.5,1.4
				c0,1.8-6.2,5.5-6.3,9.5c-0.9,30.2-1.8,60.4-2.7,90.6c0,1.4-0.7,2.8-2.9,2.7C905.6,326.6,902.5,326.5,899.4,326.4z"/>
			<path class="st5" d="M966.7,224.4c4.1,0,10.1-1.5,11.9-1.5c1,0,1.4,0.5,1.4,1.5c0.1,5.8,0.2,11.6,0.2,17.4c0,1-0.4,1.5-1.4,1.5
				c-1,0-1.9-1.2-5.4-5.2c-2.3-2.6-5.8-2.9-11.6-2.8c-1.4,0-2.4,1.1-2.4,2.4c0,26.3,0,52.5,0,78.8c0,4,6.4,7.9,6.4,9.7
				c0,1-0.6,1.4-1.6,1.4c-8.2,0-16.3,0-24.5-0.1c-1,0-1.6-0.4-1.6-1.4c0-1.8,6.5-5.6,6.5-9.6c0.2-26.3,0.5-52.5,0.7-78.8
				c0-1.2-1-2.4-2.4-2.4c-5.8-0.1-9.3,0.1-11.6,2.7c-3.6,3.9-4.5,5.2-5.5,5.2c-1,0-1.4-0.6-1.4-1.6c0.1-5.8,0.3-11.6,0.4-17.4
				c0-1,0.5-1.5,1.4-1.5c1.8,0,7.8,1.5,11.9,1.6C947.7,224.4,957.2,224.4,966.7,224.4z"/>
			<path class="st5" d="M1062.2,291.6c-0.9,0.1-4.1,2.3-5.4,2.4c-0.9,0.1-1.4-0.8-1.4-1.7c-0.2-3.7-0.4-7.4-0.7-11.1
				c-0.1-1.7,0.9-2.4,2.8-3.8c0,0,15.4-8.2,17-8.4c1.3-0.1,1.9,0.6,2,1.8c1.1,14.2,2.1,28.4,3.2,42.7c0.3,4.4-3.8,9.9-11.5,10.4
				c-9.8,0.7-19.6,1.2-29.4,1.7c-7,0.3-11.8-2.7-12-8.3c-1.2-28.9-2.4-57.8-3.6-86.7c-0.2-5.7,4-9,10.5-9.3c9.2-0.4,18.3-1,27.5-1.6
				c7.3-0.5,11.8,4.3,12.2,8.7c0.3,4.5,0.7,9,1,13.5c0.2,2.3-0.2,3.3-1.1,4.1c0,0-9.1,7.3-10.5,7.4c-1.3,0.1-1.9-0.6-2-1.8
				c-0.4-5.9-0.8-11.9-1.2-17.8c-0.1-1.8-1.6-2.8-2.9-2.7c-5.5,0.3-11,0.7-16.5,1c-2.1,0.1-2.9,1.1-2.8,3.2
				c1.3,25.4,2.6,50.8,3.9,76.2c0.1,2.1,1,3,3.3,2.9c5.8-0.3,11.6-0.6,17.3-1c1.3-0.1,2.7-1.3,2.6-3.1c-0.4-5.7-0.7-11.4-1.1-17.1
				C1063.4,292,1063.1,291.5,1062.2,291.6z"/>
			<path class="st5" d="M1088.5,321c-0.1-1.8,5.9-6.2,5.6-10.2c-2.3-27.4-4.6-54.7-6.8-82.1c-0.3-4-6.7-7.4-6.8-9.2
				c-0.1-1,0.4-1.4,1.4-1.5c14.3-1.1,28.5-2.5,42.8-4.1c8.3-0.9,13.2,2,14.1,10c1.3,11.2,2.6,22.5,4,33.7c0.4,3.2-1,5.3-3.2,7.3
				c-2.9,2.5-5.9,4.9-8.8,7.4c7,14.8,16.2,32.7,18.1,34.7c4,4.4,7.5,5.2,7.8,7c0.1,1-0.4,1.4-1.5,1.6c-8,1-16,1.9-23.9,2.7
				c-1,0.1-1.7-0.2-1.8-1.2c-0.2-1.8,3-3,2.7-5.3c0-0.4-0.4-1.2-1-2.7c-2.6-6-8.4-17.2-13.7-27.4c-2.9,2.2-5.8,4.5-8.8,6.7
				c-1.2,1-1.6,2.2-1.4,3.7c0.5,5.7,1.1,11.5,1.6,17.2c0.4,4,7.1,7.3,7.3,9c0.1,1-0.5,1.4-1.5,1.5c-8.1,0.8-16.3,1.5-24.4,2.2
				C1089.2,322.4,1088.6,322,1088.5,321z M1101.5,230.3c1.3,14,2.6,28,3.9,42c0.1,1,0.6,1.5,1.2,1.4c0.7-0.1,1.9-1,1.9-1
				c5.2-4,10.4-8,15.5-12c2.9-2.5,4-4.3,3.8-6.7c-0.9-8.2-1.8-16.4-2.7-24.6c-0.3-3.2-1.6-4.1-4.8-3.8c-5.6,0.6-11.1,1.1-16.7,1.7
				C1102.4,227.4,1101.4,228.6,1101.5,230.3z"/>
			<path class="st5" d="M1191.5,219.3c-0.2-1.6-1.5-2.6-2.8-2.4c-5.5,0.8-11,1.6-16.5,2.4c-1.3,0.2-1.9,1-1.7,2.5
				c1.9,13.8,3.8,27.6,5.7,41.4c5.6-4.4,11.2-8.8,16.7-13.2c1.3-1,2.1-1.7,2.8-1.8c0.9-0.1,1.4,0.6,1.6,1.6
				c0.6,3.6,1.1,7.3,1.7,10.9c0.3,1.6-0.6,2.5-2.5,4c-6,4.7-12,9.4-18,14.1c0.9,6.7,1.9,13.4,2.8,20.2c0.2,1.4,1.2,2.1,2.5,1.9
				c5.6-0.8,11.3-1.6,16.9-2.5c1.3-0.2,2.6-1.5,2.4-3.3c-0.5-3-0.9-6-1.4-9c-0.4-2.3-0.1-3.4,0.9-4.2c0,0,8.8-7.4,10.3-7.6
				c1.3-0.2,2,0.4,2.2,1.6c1.5,9,2.9,17.9,4.4,26.9c0.4,2.5-0.7,4-3.8,4.5c-17.3,2.8-34.7,5.2-52.1,7.4c-1,0.1-1.7-0.2-1.8-1.2
				c-0.2-1.8,5.7-6.4,5.1-10.4c-3.5-27.2-7-54.5-10.6-81.7c-0.5-4-7-7.1-7.2-8.9c-0.1-1,0.4-1.4,1.4-1.6c16.2-2,32.4-4.4,48.6-6.9
				c3-0.5,4.5,0.7,4.8,2.6c0.8,5.1,1.7,10.3,2.5,15.4c0.4,2.3,0.1,3.3-0.8,4.2c0,0-8.4,8.1-9.8,8.3c-1.3,0.2-1.9-0.4-2.1-1.6
				C1192.9,228.4,1192.2,223.8,1191.5,219.3z"/>
			<path class="st5" d="M1253.1,208.6c-0.3-1.6-1.6-2.5-2.9-2.3c-5.5,1.1-10.9,2.1-16.4,3.1c-1.3,0.2-1.8,1-1.6,2.5
				c2.5,13.7,4.9,27.4,7.4,41.1c5.4-4.6,10.8-9.2,16.2-13.9c1.3-1.1,2-1.8,2.7-1.9c0.9-0.2,1.4,0.6,1.6,1.5
				c0.7,3.6,1.4,7.2,2.1,10.9c0.3,1.6-0.5,2.5-2.3,4.1c-5.8,5-11.6,9.9-17.5,14.8c1.2,6.7,2.4,13.4,3.6,20c0.2,1.4,1.3,2,2.6,1.8
				c5.6-1,11.2-2.1,16.8-3.2c1.3-0.3,2.6-1.6,2.2-3.4c-0.6-3-1.2-6-1.7-9c-0.4-2.3-0.2-3.3,0.7-4.2c0,0,8.5-7.8,10-8.1
				c1.3-0.3,2,0.3,2.3,1.5c1.8,8.9,3.6,17.8,5.5,26.7c0.5,2.4-0.5,4.1-3.6,4.7c-17.2,3.5-34.5,6.7-51.8,9.6c-1,0.2-1.7-0.1-1.9-1.1
				c-0.3-1.8,5.4-6.7,4.7-10.6c-4.6-27.1-9.2-54.1-13.9-81.2c-0.7-4-7.3-6.8-7.6-8.5c-0.2-1,0.3-1.5,1.3-1.6
				c16.1-2.7,32.3-5.7,48.3-8.9c3-0.6,4.5,0.5,4.9,2.4c1,5.1,2.1,10.2,3.1,15.3c0.5,2.3,0.2,3.3-0.6,4.2c0,0-8.1,8.4-9.5,8.7
				c-1.3,0.2-2-0.3-2.2-1.5C1254.9,217.6,1254,213.1,1253.1,208.6z"/>
			<path class="st5" d="M1313.8,195.6c-0.4-1.8-2.1-2.5-3.3-2.2c-5.4,1.3-10.8,2.5-16.2,3.7c-2.1,0.5-2.7,1.6-2.2,3.6
				c5.5,24.8,11,49.7,16.5,74.5c0.4,2,1.5,2.8,3.7,2.3c5.7-1.3,11.4-2.6,17-3.9c1.3-0.3,2.5-1.7,2.1-3.5c-1-4.3-2-8.6-3.1-12.9
				c-0.5-2.3-0.3-3.3,0.5-4.2c0,0,8.1-8.8,9.5-9.1c1.3-0.3,2,0.2,2.3,1.4c2.1,8.6,4.2,17.1,6.3,25.7c1.1,4.3-2.1,10.4-9.7,12.2
				c-9.6,2.3-19.2,4.5-28.9,6.6c-6.9,1.5-12.1-0.6-13.3-6.2c-6-28.3-12-56.6-18-84.9c-1.2-5.6,2.4-9.6,8.9-11c9-2,18-4,27-6.2
				c7.1-1.7,12.4,2.2,13.5,6.6c1.1,4.4,2.2,8.8,3.2,13.2c0.6,2.3,0.4,3.3-0.4,4.2c0,0-7.8,8.7-9.2,9.1c-1.3,0.3-2-0.2-2.3-1.5
				C1316.5,207.2,1315.2,201.4,1313.8,195.6z"/>
			<path class="st5" d="M1374.6,179.8c-0.5-1.6-1.8-2.4-3.1-2c-5.4,1.5-10.8,3-16.2,4.4c-1.2,0.3-1.7,1.2-1.4,2.7
				c3.6,13.5,7.2,26.9,10.7,40.4c5.1-5,10.1-10.1,15.1-15.1c1.2-1.2,1.9-2,2.6-2.2c0.8-0.2,1.5,0.4,1.7,1.4c1,3.6,2,7.1,3,10.7
				c0.4,1.6-0.3,2.5-2,4.3c-5.4,5.4-10.8,10.8-16.3,16.2c1.7,6.6,3.5,13.1,5.2,19.7c0.4,1.3,1.4,1.9,2.7,1.6
				c5.5-1.5,11.1-3,16.6-4.5c1.3-0.4,2.4-1.8,2-3.6c-0.8-2.9-1.6-5.9-2.5-8.8c-0.6-2.3-0.5-3.3,0.3-4.3c0,0,7.9-8.4,9.3-8.9
				c1.3-0.4,2,0.1,2.4,1.3c2.5,8.7,5.1,17.5,7.6,26.2c0.7,2.4-0.2,4.1-3.3,5c-17,4.9-34,9.5-51.1,13.8c-1,0.3-1.7,0-1.9-0.9
				c-0.4-1.7,4.9-7.1,3.9-11c-6.8-26.6-13.6-53.2-20.4-79.8c-1-3.9-7.8-6.1-8.3-7.9c-0.2-0.9,0.2-1.5,1.2-1.7
				c15.9-4,31.8-8.3,47.7-12.9c3-0.9,4.6,0.1,5.1,2c1.5,5,2.9,10,4.4,15c0.7,2.3,0.5,3.3-0.3,4.3c0,0-7.4,9-8.8,9.4
				c-1.2,0.4-2-0.2-2.3-1.4C1377.1,188.6,1375.9,184.2,1374.6,179.8z"/>
		</g>
	</g>
	<polygon class="st6" points="1398.3,831.6 1400.5,831.6 1400.5,831.6 	"/>
	<polygon class="st6" points="1291.8,412.1 1294,412.1 1294,412.1 	"/>
</g>
<g id="Layer_4" class="st0">
	
		<linearGradient id="SVGID_1_" gradientUnits="userSpaceOnUse" x1="740.3987" y1="619.7996" x2="740.3987" y2="268.7001" gradientTransform="matrix(0.8598 2.400000e-02 -5.690000e-02 -0.9882 253.1942 1033.2972)">
		<stop  offset="0" style="stop-color:#F7931E"/>
		<stop  offset="1" style="stop-color:#C1272D"/>
	</linearGradient>
	<path class="st7" d="M701.7,516.3c0,0,59.6-57.2,111.1-3s11.2,188.9,15,201.7c3.8,12.8,43.9,68,86.2,71.6s106.9-43.5,109.8-53.6
		s10.7-56.5-19.3-124c-30-67.5-52.3-122.5-109.1-161.6S701.7,516.3,701.7,516.3z"/>
	
		<linearGradient id="SVGID_2_" gradientUnits="userSpaceOnUse" x1="926.1821" y1="816.793" x2="926.1821" y2="317.9835" gradientTransform="matrix(1 0 0 -1 0 1080)">
		<stop  offset="0" style="stop-color:#F7931E"/>
		<stop  offset="1" style="stop-color:#C1272D"/>
	</linearGradient>
	<path class="st8" d="M960.1,757.4c0,0-78.4-78.3-69.5-142.4c8.9-64.1,28.9-46.3,46.6-108.5s11.1-53.3-22.2-93.2
		s-88.8-79.9-88.8-79.9s91,31.1,111,55.5s-2.2-107.2-62.2-125.7c0,0,119.9,10.3,135.4,134.6c15.5,124.3-37.7,137.6-35.5,170.9
		s16.8,84.4,38.3,108.8C1034.9,701.9,1036.3,781.8,960.1,757.4z"/>
	
		<linearGradient id="SVGID_3_" gradientUnits="userSpaceOnUse" x1="1000.1653" y1="754.4819" x2="1000.1653" y2="380.2974" gradientTransform="matrix(1 0 0 -1 0 1080)">
		<stop  offset="0" style="stop-color:#F7931E"/>
		<stop  offset="1" style="stop-color:#C1272D"/>
	</linearGradient>
	<path class="st9" d="M929.8,539.7c70.1-77.3,130-11.6,121.9-87.5s-62.7-126.7-62.7-126.7s100.6,58.9,109.5,90.4
		s13.6,132.7-44,197.1c-57.6,64.5-102.2,90.9-123.9,86.1C909,694.3,866.4,609.7,929.8,539.7z"/>
	<path class="st10" d="M1210.3,574.9c0,148.7-120.6,269.3-269.3,269.3S671.8,723.6,671.8,574.9H1210.3z"/>
	
		<rect x="807.4" y="807.2" transform="matrix(0.7071 -0.7071 0.7071 0.7071 -309.7198 895.5643)" class="st10" width="237.5" height="28.9"/>
	
		<rect x="941.5" y="702.9" transform="matrix(0.7071 -0.7071 0.7071 0.7071 -301.0088 916.6168)" class="st10" width="28.9" height="237.5"/>
</g>
<g id="Layer_3">
	<g>
		<path class="st11" d="M1094.7,517.1c0,0-34.1,38.4-2.8,63C1091.9,580,1125.1,561.3,1094.7,517.1z"/>
		<path class="st11" d="M1051.4,533.1c0,0-17.9,48.1,20.2,59.7C1071.5,592.8,1095.7,563.4,1051.4,533.1z"/>
		<path class="st11" d="M1094,588.6c0,0-48.1,17.8-32.1,54.2C1061.9,642.8,1100,641.9,1094,588.6z"/>
		<path class="st11" d="M1048.2,582.3c0,0-38.4,34-10.3,62.2C1037.8,644.5,1073,629.9,1048.2,582.3z"/>
		<path class="st11" d="M1058.6,658.7c0,0-50.5-9-55.1,30.6C1003.5,689.3,1036.8,707.7,1058.6,658.7z"/>
		<path class="st11" d="M1022.3,630.1c0,0-50.3,9.9-40.4,48.4C981.9,678.6,1019.7,683.8,1022.3,630.1z"/>
		<path class="st11" d="M1078.7,461.9c0,0-29.7,41.8,4,62.9C1082.7,524.8,1113.7,502.6,1078.7,461.9z"/>
		<path class="st11" d="M1035,476c0,0-11.2,50.1,28.1,56.4C1063.1,532.4,1083.1,500,1035,476z"/>
		<path class="st11" d="M1044.1,406.1c0,0-18.3,47.9,19.6,59.9C1063.7,466,1088.2,436.7,1044.1,406.1z"/>
		<path class="st11" d="M1000.4,432.8c0,0,7.9,50.7,46.8,42.2C1047.2,475,1053.9,437.5,1000.4,432.8z"/>
		<path class="st11" d="M823.9,523.7c0,0,35.6,36.9,5.4,62.8C829.3,586.5,795.3,569.2,823.9,523.7z"/>
		<path class="st11" d="M867.9,537.9c0,0,19.9,47.3-17.7,60.5C850.2,598.5,824.8,570,867.9,537.9z"/>
		<path class="st11" d="M827.6,595.2c0,0,48.8,15.8,34.3,52.9C861.9,648,823.8,648.7,827.6,595.2z"/>
		<path class="st11" d="M873.1,587c0,0,39.8,32.4,12.9,61.7C886,648.7,850.2,635.6,873.1,587z"/>
		<path class="st11" d="M865.8,663.7c0,0,50.1-11,56.3,28.3C922.2,692,889.7,711.8,865.8,663.7z"/>
		<path class="st11" d="M901,633.7c0,0,50.7,7.8,42.3,46.7C943.3,680.4,905.8,687.2,901,633.7z"/>
		<path class="st11" d="M837.6,468c0,0,31.4,40.5-1.4,63C836.2,531,804.3,510.1,837.6,468z"/>
		<path class="st11" d="M881.8,480.2c0,0,13.3,49.6-25.7,57.6C856.1,537.8,834.8,506.1,881.8,480.2z"/>
		<path class="st11" d="M869.9,410.7c0,0,20.3,47.1-17.1,60.7C852.8,471.4,827.1,443.2,869.9,410.7z"/>
		<path class="st11" d="M914.7,435.7c0,0-5.8,51-45,44.1C869.6,479.8,861.4,442.6,914.7,435.7z"/>
	</g>
</g>
<g id="Layer_2_1_" class="st0">
	<path class="st12" d="M1347.3-1176.3c0,0-112.9,127.1-9.2,208.7C1338.1-967.6,1448-1029.6,1347.3-1176.3z"/>
	<path class="st12" d="M1203.7-1123.1c0,0-59.3,159.3,66.8,197.9C1270.5-925.2,1350.6-1022.8,1203.7-1123.1z"/>
	<path class="st12" d="M1344.9-939.3c0,0-159.4,59-106.4,179.7C1238.4-759.5,1364.7-762.5,1344.9-939.3z"/>
	<path class="st12" d="M1193.2-960c0,0-127.3,112.6-34.3,206C1158.9-754,1275.5-802.3,1193.2-960z"/>
	<path class="st12" d="M1227.7-707.1c0,0-167.4-29.7-182.7,101.3C1045-605.7,1155.4-544.5,1227.7-707.1z"/>
	<path class="st12" d="M1107.2-801.6c0,0-166.8,32.8-133.7,160.5C973.5-641.2,1098.6-624,1107.2-801.6z"/>
	<path class="st12" d="M1294.2-1358.9c0,0-98.5,138.5,13.3,208.4C1307.5-1150.5,1410.2-1224,1294.2-1358.9z"/>
	<path class="st12" d="M1149.6-1312.3c0,0-37.1,165.9,93.1,187C1242.7-1125.3,1308.8-1232.9,1149.6-1312.3z"/>
	<path class="st12" d="M1179.6-1544c0,0-60.8,158.7,65,198.5C1244.6-1345.5,1325.6-1442.3,1179.6-1544z"/>
	<path class="st12" d="M1034.7-1455.3c0,0,26.3,167.9,155.2,139.8C1189.9-1315.5,1211.9-1439.8,1034.7-1455.3z"/>
	<path class="st12" d="M450-1154.2c0,0,118,122.3,17.9,208.1C467.9-946.1,355.4-1003.5,450-1154.2z"/>
	<path class="st12" d="M595.7-1107.1c0,0,65.9,156.7-58.5,200.5C537.2-906.6,453.1-1000.7,595.7-1107.1z"/>
	<path class="st12" d="M462.3-917.5c0,0,161.7,52.3,113.8,175.2C576-742.3,449.8-740,462.3-917.5z"/>
	<path class="st12" d="M613-944.5c0,0,131.9,107.2,42.8,204.4C655.8-740.1,537.2-783.6,613-944.5z"/>
	<path class="st12" d="M589-690.3c0,0,166-36.6,186.7,93.7C775.7-596.7,667.9-530.9,589-690.3z"/>
	<path class="st12" d="M705.4-789.8c0,0,168,25.9,140.2,154.8C845.6-635.1,721.4-612.7,705.4-789.8z"/>
	<path class="st12" d="M495.5-1338.9c0,0,104.1,134.3-4.7,208.8C490.8-1130.1,385.2-1199.3,495.5-1338.9z"/>
	<path class="st12" d="M641.9-1298.3c0,0,43.9,164.2-85.3,190.7C556.6-1107.7,486.1-1212.4,641.9-1298.3z"/>
	<path class="st12" d="M602.3-1528.6c0,0,67.3,156.1-56.7,201C545.6-1327.5,460.7-1420.9,602.3-1528.6z"/>
	<path class="st12" d="M750.7-1445.9c0,0-19.3,168.9-149.2,146.1C601.5-1299.8,574.3-1423.1,750.7-1445.9z"/>
</g>
</svg>
